<?xml version="1.0" standalone="no"?>
<!DOCTYPE svg PUBLIC "-//W3C//DTD SVG 20010904//EN"
 "http://www.w3.org/TR/2001/REC-SVG-20010904/DTD/svg10.dtd">
<svg version="1.0" xmlns="http://www.w3.org/2000/svg"
 width="40.000000pt" height="40.000000pt" viewBox="0 0 40.000000 40.000000"
 preserveAspectRatio="xMidYMid meet">

<g transform="translate(0.000000,40.000000) scale(0.100000,-0.100000)"
fill="#000000" stroke="none">
<path d="M67 314 c-4 -4 -7 -13 -7 -21 0 -9 16 -13 55 -13 48 0 55 -2 55 -20
0 -17 -7 -20 -57 -22 -50 -1 -52 -2 -15 -5 34 -3 42 -8 42 -24 0 -16 -7 -19
-40 -19 -38 0 -40 -2 -40 -30 0 -35 19 -40 38 -10 16 26 48 26 64 0 18 -28 83
-28 98 0 14 26 56 26 70 0 13 -24 38 -26 46 -5 9 23 -5 65 -21 65 -8 0 -21 14
-30 30 -9 17 -24 30 -35 30 -12 0 -20 8 -22 23 -3 21 -8 22 -98 25 -53 1 -99
0 -103 -4z m241 -66 c20 -20 14 -38 -13 -38 -20 0 -25 5 -25 25 0 27 18 33 38
13z"/>
<path d="M40 260 c0 -6 27 -10 60 -10 33 0 60 4 60 10 0 6 -27 10 -60 10 -33
0 -60 -4 -60 -10z"/>
<path d="M20 210 c0 -5 25 -10 55 -10 30 0 55 5 55 10 0 6 -25 10 -55 10 -30
0 -55 -4 -55 -10z"/>
<path d="M104 146 c-10 -26 4 -48 28 -44 33 4 33 52 0 56 -13 2 -25 -3 -28
-12z m36 -16 c0 -5 -4 -10 -10 -10 -5 0 -10 5 -10 10 0 6 5 10 10 10 6 0 10
-4 10 -10z"/>
<path d="M270 145 c-10 -12 -10 -18 0 -30 7 -8 18 -15 25 -15 7 0 18 7 25 15
10 12 10 18 0 30 -7 8 -18 15 -25 15 -7 0 -18 -7 -25 -15z m40 -15 c0 -5 -7
-10 -15 -10 -8 0 -15 5 -15 10 0 6 7 10 15 10 8 0 15 -4 15 -10z"/>
</g>
</svg>
