<?xml version="1.0" standalone="no"?>
<!DOCTYPE svg PUBLIC "-//W3C//DTD SVG 20010904//EN"
 "http://www.w3.org/TR/2001/REC-SVG-20010904/DTD/svg10.dtd">
<svg version="1.0" xmlns="http://www.w3.org/2000/svg"
 width="40.000000pt" height="40.000000pt" viewBox="0 0 40.000000 40.000000"
 preserveAspectRatio="xMidYMid meet">

<g transform="translate(0.000000,40.000000) scale(0.100000,-0.100000)"
fill="#000000" stroke="none">
<path d="M254 348 c-5 -8 -2 -9 11 -5 27 11 46 -10 34 -37 -10 -21 -14 -22
-49 -12 -47 12 -63 5 -140 -63 -62 -55 -62 -58 5 -134 42 -48 52 -46 134 32
l62 58 -3 61 c-1 33 0 64 4 68 4 3 3 15 -3 25 -11 21 -44 25 -55 7z m39 -87
c-11 -29 -15 -32 -29 -20 -10 8 -11 15 -4 24 15 18 39 15 33 -4z m-123 -65 c6
-18 14 -23 28 -19 24 6 39 -14 23 -30 -9 -9 -16 -8 -31 0 -10 7 -20 9 -23 5
-2 -4 -2 -1 -1 6 2 6 -5 12 -16 12 -13 0 -20 7 -20 18 0 38 26 43 40 8z m21
-3 c-12 -20 -14 -14 -5 12 4 9 9 14 11 11 3 -2 0 -13 -6 -23z"/>
<path d="M140 190 c0 -5 5 -10 10 -10 6 0 10 5 10 10 0 6 -4 10 -10 10 -5 0
-10 -4 -10 -10z"/>
</g>
</svg>
